<?xml version="1.0" encoding="utf-8"?>
<!-- Generator: Adobe Illustrator 19.2.1, SVG Export Plug-In . SVG Version: 6.00 Build 0)  -->
<svg version="1.1" id="layer" xmlns="http://www.w3.org/2000/svg" xmlns:xlink="http://www.w3.org/1999/xlink" x="0px" y="0px"
	 viewBox="0 0 652 652" style="enable-background:new 0 0 652 652;" xml:space="preserve">
<style type="text/css">
	.st0{fill:#281E72;}
	.st1{fill:#EC008C;}
</style>
<g>
	<path class="st0" d="M315.8,289L315.8,289c0,0.8-26.1,78.7-35,109.6c-9.6-30.9-34.4-108.8-35-109.6c-4.5-14.9-16.6-16.3-21.7-16.3
		c-19.1,0-23.6,12.1-24.8,19.4l-17.2,137.7h0.6c-0.6,0.6-0.6,1.7-1.3,3.4c-1.3,7.9-1.9,11.5-1.9,13.5c0,8.7,7,15.2,16.6,15.2
		c9.6,0,14.6-5.6,16.6-16.6c0.6-7.9,7-74.2,12.1-114.7c11.5,36.5,39.5,116.4,39.5,117.2c3.8,11.5,10.8,14.1,15.9,14.1
		c11.5,0,15.9-9,17.8-16.6c3.2-8.2,26.1-74.8,38.2-115c5.1,37.1,12.7,114.1,12.7,115c1.3,11,7,16.6,15.9,16.6
		c9.6,0,16.6-6.5,16.6-15.2c0-2-0.6-5.6-1.9-13.5l-0.6-3.4c0-0.8,0-2.5-0.6-5.9l-16.6-131.5c-0.6-7.6-5.7-19.7-24.2-19.7
		C326.7,272.7,319,278.6,315.8,289"/>
	<path class="st1" d="M394.3,290.8v152.6c0,13.5,8.3,18.3,15.9,18.3c7,0,15.9-4.8,15.9-18.3V290.8c0-13.5-8.9-18.3-15.9-18.3
		C402.6,272.5,394.3,277.3,394.3,290.8"/>
	<path class="st1" d="M53.4,295.9c-8.9,7.9-15.3,18-20.4,30.1c-5.1,12.1-7.6,25.6-7.6,39.9c0,29.2,9.6,52.8,28.7,70
		c16.6,15.2,38.2,22.8,63.7,22.8c17.2,0,31.2-3.4,43.3-9.8c7-4.2,10.8-9.3,10.8-16c0-3.4-1.3-6.5-3.8-9.3c-3.2-3.9-6.4-4.2-8.3-4.2
		c-2.5,0-5.1,0.6-7.6,1.7l-13.4,5.6c-5.7,2.2-12.7,3.4-21,3.4c-14.6,0-27.4-4.5-37.6-13.2c-12.1-11.2-18.5-28.4-18.5-50.6
		c0-22.5,6.4-39.9,18.5-51.7c9.6-9,22.3-13.5,37.6-13.5c8.3,0,17.2,1.7,26.1,5.1s12.7,3.9,14,3.9c4.5,0,7-1.4,8.9-3.9
		c2.5-2.5,3.2-5.6,3.2-9.3c0-3.1,0-12.4-18.5-19.1c-10.2-3.4-21-5.3-33.1-5.3C92.9,272.3,70.6,280.2,53.4,295.9"/>
	<path class="st1" d="M320.2,229.3c0,21.6-17.2,39.1-38.8,39.1c-21.7,0-38.9-17.4-38.9-39.1c0-21.4,17.2-38.8,38.9-38.8
		C303,190.5,320.2,208,320.2,229.3"/>
	<path class="st1" d="M576.8,388.3v-0.8c-0.6,1.4-2.5,2.2-4.5,2.2c-4.5,0-7-3.1-7-7.6c0-4.2,2.5-7.3,7-7.3c1.9,0,3.2,0.6,4.5,2.2
		v-11.8c0-0.8,0.6-0.8,1.3-0.8h0.6c0.6,0,0.6,0,0.6,0.8v23c0,0.8,0,1.1-0.6,1.1h-0.6C577.5,389.4,576.8,389.1,576.8,388.3
		 M572.4,377c-2.5,0-4.5,2.2-4.5,5.1c0,3.1,1.9,5.3,4.5,5.3c3.2,0,5.1-2,5.1-5.3C577.5,379,575.5,377,572.4,377 M466,370
		c0,0.6,0,0.8,0,0.8l-0.6-0.3c-1.3-1.4-3.8-2.2-6.4-2.2c-4.5,0-8.9,4.5-8.9,9.6c0,5.1,4.5,9.3,9.6,9.3c1.9,0,4.5-0.8,5.7-2l0.6-0.3
		c0,0,0,0.3,0,0.8v1.1v0.8c-1.3,1.1-4.5,2-6.4,2c-7,0-12.1-5.3-12.1-11.8s5.1-11.8,12.1-11.8c1.9,0,5.1,0.8,6.4,2v0.8V370z
		 M473,376.7c1.3-1.4,1.9-2,3.8-2c1.9,0,3.2,0.6,3.8,2c0.6,0.8,1.3,2,1.3,3.7v7.9c0,0.8,0,1.1-1.3,1.1H480c-0.6,0-0.6-0.3-0.6-1.1
		v-7.6c0-2.5-0.6-3.7-3.2-3.7c-2.5,0-3.2,1.4-3.2,5.1v6.2c0,0.8-0.6,1.1-1.3,1.1h-0.6c-0.6,0-0.6-0.3-0.6-1.1v-23
		c0-0.8,0-0.8,0.6-0.8h0.6c0.6,0,1.3,0,1.3,0.8V376.7z M492.8,377c-2.5,0-4.5,2.2-4.5,5.1c0,3.1,1.9,5.3,4.5,5.3
		c2.5,0,4.5-2.2,4.5-5.3S495.3,377,492.8,377 M497.2,388.3v-1.1c-1.3,2-2.5,2.5-5.1,2.5c-3.8,0-6.4-3.1-6.4-7.6
		c0-4.2,2.5-7.3,6.4-7.3c2.5,0,3.8,0.6,5.1,2.2v-1.1c0-0.8,0-0.8,1.3-0.8h0.6c0.6,0,0.6,0,0.6,0.8v12.4c0,0.8,0,1.1-0.6,1.1h-0.6
		C497.2,389.4,497.2,389.1,497.2,388.3 M506.8,376.5c1.3-1.4,1.9-1.7,3.2-1.7c1.3,0,1.9,0.3,1.9,0.8v0.6v0.6l-1.3,0.6V377h-0.6
		c-2.5,0-3.2,1.4-3.2,4.8v6.5c0,0.8,0,1.1-0.6,1.1h-0.6c-0.6,0-1.3-0.3-1.3-1.1v-12.4c0-0.8,0.6-0.8,1.3-0.8h0.6
		c0.6,0,0.6,0,0.6,0.8V376.5z M518.2,388.3c0,0.8,0,1.1-0.6,1.1H517c-1.3,0-1.3-0.3-1.3-1.1v-11H515c-0.6,0-0.6,0-0.6-0.8v-0.6
		c0-0.8,0-0.8,0.6-0.8h0.6v-4.2c0-0.8,0-0.8,1.3-0.8h0.6c0.6,0,0.6,0,0.6,0.8v4.2h1.9c0.6,0,0.6,0,0.6,0.8v0.6c0,0.8,0,0.8-0.6,0.8
		h-1.9V388.3z M525.2,380.7h8.3c-0.6-2.2-1.9-3.7-4.5-3.7C527.1,377,525.2,378.4,525.2,380.7 M535.4,382.6h-10.8
		c0.6,2.8,2.5,4.8,5.1,4.8c1.3,0,2.5-0.8,3.8-2.2l0.6-0.6l0.6,0.3v0.3l0.6,0.6c0,0.3,0,1.1-0.6,1.7c-1.3,1.4-3.2,2.2-5.7,2.2
		c-3.8,0-7-3.1-7-7.6c0-4.2,3.2-7.3,7-7.3c4.5,0,7,3.1,7,7.3C536.1,382.6,536.1,382.6,535.4,382.6 M542.4,376.5
		c1.3-1.4,1.9-1.7,3.2-1.7c0.6,0,1.9,0.3,1.9,0.8l-0.6,0.6v0.6l-0.6,0.6l-0.6-0.3H545c-1.9,0-2.5,1.4-2.5,4.8v6.5
		c0,0.8-0.6,1.1-1.3,1.1h-0.6c-0.6,0-0.6-0.3-0.6-1.1v-12.4c0-0.8,0-0.8,0.6-0.8h0.6c0.6,0,1.3,0,1.3,0.8V376.5z M551.3,380.7h8.3
		c0-2.2-1.9-3.7-3.8-3.7C553.9,377,552,378.4,551.3,380.7 M561.5,382.6h-10.2c0,2.8,1.9,4.8,4.5,4.8c1.9,0,3.2-0.8,3.8-2.2l0.6-0.6
		l0.6,0.3l0.6,0.3l0.6,0.6c0,0.3-0.6,1.1-1.3,1.7c-1.3,1.4-3.2,2.2-5.1,2.2c-4.5,0-7-3.1-7-7.6c0-4.2,3.2-7.3,7-7.3
		c3.8,0,7,3.1,7,7.3C562.8,382.6,562.2,382.6,561.5,382.6"/>
	<path class="st0" d="M622.8,424c0,0.8,0,1.1-0.6,1.1h-0.6c-0.6,0-1.3-0.3-1.3-1.1v-11h-0.6c-0.6,0-0.6-0.3-0.6-0.8v-0.6
		c0-0.8,0-0.8,0.6-0.8h0.6v-4.2c0-0.8,0.6-0.8,1.3-0.8h0.6c0.6,0,0.6,0,0.6,0.8v4.2h1.9c0.6,0,0.6,0,0.6,0.8v0.6
		c0,0.6,0,0.8-0.6,0.8h-1.9 M468.7,402.7l0.6-0.6c0,0,0.6,0.3,0.6,0.8l3.2,21.1v0.6c0,0.3-0.6,0.6-1.3,0.6h-0.6
		c-0.6,0-0.6-0.3-0.6-0.8l-2.5-15.2l-7,15.5l-0.6,0.6l-0.6-0.6l-7-15.5l-1.9,15.2c-0.6,0.6-0.6,0.8-1.3,0.8h-0.6
		c-0.6,0-0.6-0.3-0.6-0.6V424l3.2-21.1c0-0.6,0-0.8,0.6-0.8l0.6,0.6l7.6,17.4L468.7,402.7z M484,412.8c-2.5,0-4.5,2.2-4.5,5.1
		c0,3.1,1.9,5.3,4.5,5.3c2.5,0,4.5-2.2,4.5-5.3S486.5,412.8,484,412.8 M488.4,424v-0.8c-1.3,1.7-2.5,2.2-5.1,2.2
		c-3.8,0-6.4-3.1-6.4-7.6c0-4.2,2.5-7.3,6.4-7.3c2.5,0,3.8,0.6,5.1,2.2v-1.1c0-0.8,0-0.8,1.3-0.8h0.6c0.6,0,0.6,0,0.6,0.8V424
		c0,0.8,0,1.1-0.6,1.1h-0.6C488.4,425.2,488.4,424.9,488.4,424 M498,412.5c1.3-1.4,2.5-2,4.5-2c1.3,0,3.2,0.6,3.8,2
		c0.6,0.8,0.6,2,0.6,3.7v8.2c0,0.6,0,0.8-0.6,0.8h-0.6c-0.6,0-0.6-0.3-0.6-0.8v-7.6c0-3.1-1.3-3.9-3.2-3.9c-2.5,0-3.8,1.4-3.8,5.1
		v6.5c0,0.6,0,0.8-0.6,0.8h-0.6c-0.6,0-0.6-0.3-0.6-0.8v-12.6c0-0.8,0-0.8,0.6-0.8h0.6c0.6,0,0.6,0,0.6,0.8V412.5z M517.7,412.8
		c-2.5,0-4.5,2.2-4.5,5.1c0,3.1,1.9,5.3,5.1,5.3c2.5,0,4.5-2.2,4.5-5.3S520.9,412.8,517.7,412.8 M522.8,424v-0.8
		c-1.3,1.7-3.2,2.2-5.1,2.2c-3.8,0-7-3.1-7-7.6c0-4.2,3.2-7.3,7-7.3c1.9,0,3.8,0.6,5.1,2.2v-1.1c0-0.8,0-0.8,0.6-0.8h0.6
		c0.6,0,1.3,0,1.3,0.8V424c0,0.8-0.6,1.1-1.3,1.1h-0.6C522.8,425.2,522.8,424.9,522.8,424 M536.2,412.8c-2.5,0-4.5,2-4.5,5.1
		s1.9,5.3,4.5,5.3s4.5-2.2,4.5-5.3S538.7,412.8,536.2,412.8 M540.6,425.2v-2c-1.3,1.4-3.2,2.2-5.1,2.2c-3.8,0-6.4-3.1-6.4-7.6
		c0-4.2,2.5-7.3,6.4-7.3c2.5,0,3.8,0.6,5.1,2.2v-1.1c0-0.8,0-0.8,0.6-0.8h1.3c0.6,0,0.6,0,0.6,0.8v13.2c0,2.5-0.6,3.9-1.3,5.3
		c-1.3,1.7-3.2,2.8-5.7,2.8c-3.8,0-7-2.8-7-5.9c0-0.6,0-0.6,0.6-0.6h0.6c1.3,0,1.3,0,1.3,0.6c0,2.2,1.9,3.7,4.5,3.7
		C539.4,430.8,540.6,428.8,540.6,425.2 M549.6,416.4h8.9c-0.6-2.2-2.5-3.7-4.5-3.7C552.1,412.8,550.2,414.2,549.6,416.4
		 M559.8,418.4h-10.2c0,2.8,1.9,4.8,4.5,4.8c1.9,0,3.2-0.8,4.5-2.2v-0.6l0.6,0.3l0.6,0.3l0.6,0.6c0,0.3-0.6,1.1-1.3,1.7
		c-1.3,1.4-3.2,2.2-5.1,2.2c-3.8,0-7-3.1-7-7.6c0-4.2,3.2-7.3,7-7.3c3.8,0,7,3.1,7,7.3C561,418.1,560.4,418.4,559.8,418.4
		 M566.8,412.2c1.3-1.1,2.5-1.7,3.8-1.7c1.9,0,3.2,0.8,3.8,2.2c0.6-1.4,2.5-2.2,4.5-2.2c2.5,0,4.5,1.7,4.5,5.3v8.2
		c0,0.8,0,1.1-0.6,1.1H582c-1.3,0-1.3-0.3-1.3-1.1v-7.6c0-2.5-0.6-3.7-2.5-3.7c-1.9,0-3.2,1.4-3.2,4.2v7c0,0.8,0,1.1-0.6,1.1h-0.6
		c-0.6,0-1.3-0.3-1.3-1.1v-7.3c0-2.8-0.6-3.9-2.5-3.9c-1.9,0-3.2,1.4-3.2,4.5v6.7c0,0.8,0,1.1-0.6,1.1h-0.6c-0.6,0-0.6-0.3-0.6-1.1
		v-12.4c0-0.8,0-0.8,0.6-0.8h0.6c0.6,0,0.6,0,0.6,0.8V412.2z M589.7,416.4h8.3c-0.6-2.2-1.9-3.7-3.8-3.7
		C591.6,412.8,590.3,414.2,589.7,416.4 M599.9,418.4h-10.2c0,2.8,1.9,4.8,4.5,4.8c1.9,0,3.2-0.8,3.8-2.2l0.6-0.6l0.6,0.3l0.6,0.3
		l0.6,0.6c0,0.3-0.6,1.1-1.3,1.7c-1.3,1.4-3.2,2.2-5.1,2.2c-4.5,0-7-3.1-7-7.6c0-4.2,2.5-7.3,7-7.3c3.8,0,6.4,3.1,6.4,7.3
		C600.5,418.1,600.5,418.4,599.9,418.4 M606.9,412.5c1.3-1.4,2.5-2,4.5-2c1.3,0,3.2,0.6,3.8,2c0.6,0.8,0.6,2,0.6,3.7v8.2
		c0,0.6,0,0.8-0.6,0.8h-0.6c-1.3,0-1.3-0.3-1.3-0.8v-7.6c0-3.1-0.6-3.9-2.5-3.9c-2.5,0-3.8,1.4-3.8,5.1v6.5c0,0.6,0,0.8-0.6,0.8
		h-0.6c-1.3,0-1.3-0.3-1.3-0.8v-12.6c0-0.8,0-0.8,1.3-0.8h0.6c0.6,0,0.6,0,0.6,0.8V412.5z"/>
	<path class="st1" d="M550.9,454.2h-10.2c0,3.1,1.9,5.1,4.5,5.1c1.3,0,3.2-0.8,3.8-2.5l0.6-0.3l0.6,0.3l0.6,0.3l0.6,0.6
		c0,0.3-0.6,0.8-1.3,1.7c-1.3,1.4-3.2,2.2-5.1,2.2c-4.5,0-7-3.1-7-7.6s2.5-7.6,7-7.6c3.8,0,6.4,3.1,6.4,7.3
		C551.5,454.2,551.5,454.2,550.9,454.2 M540.7,452.2h8.3c0-2.2-1.9-3.7-3.8-3.7C543.3,448.6,541.3,450.3,540.7,452.2 M452.8,460.1
		c0,0.8,0,0.8-0.6,0.8h-0.6c-1.3,0-1.3,0-1.3-0.8V439c0-0.8,0-0.8,1.3-0.8h0.6c0.6,0,0.6,0,0.6,0.8V460.1z M461.7,448.3
		c1.3-1.4,1.9-2,3.8-2c1.9,0,3.8,0.8,4.5,2c0.6,0.8,0.6,2,0.6,3.9v7.9c0,0.8,0,0.8-0.6,0.8h-0.6c-1.3,0-1.3,0-1.3-0.8v-7.6
		c0-2.8-0.6-3.9-3.2-3.9c-2.5,0-3.2,1.7-3.2,5.3v6.2c0,0.8,0,0.8-0.6,0.8h-1.3c-0.6,0-0.6,0-0.6-0.8v-12.4c0-0.8,0-0.8,0.6-0.8h1.3
		c0.6,0,0.6,0,0.6,0.8V448.3z M482.8,449.7l-0.6,0.3l-0.6-0.3l-1.3-1.1c-1.3,0-1.9,0.8-1.9,1.7c0,0.8,0.6,1.1,2.5,2
		c3.2,1.4,3.8,2.2,3.8,4.5c0,2.5-1.9,4.8-4.5,4.8c-1.9,0-3.8-0.8-4.5-2.5l-0.6-0.8l0.6-0.8h0.6l0.6-0.3l0.6,0.6
		c0.6,1.1,1.3,1.7,2.5,1.7c1.3,0,1.9-1.1,1.9-2.2s0-1.7-1.9-2.5c-3.2-1.4-4.5-2.2-4.5-4.2c0-2.2,1.9-3.9,4.5-3.9
		c1.3,0,2.5,0.8,3.2,2l0.6,0.6l-0.6,0.6L482.8,449.7z M491.7,460.1c0,0.8,0,0.8-0.6,0.8h-0.6c-0.6,0-1.3,0-1.3-0.8v-11h-0.6
		c-0.6,0-0.6-0.3-0.6-1.1v-0.3c0-0.8,0-1.1,0.6-1.1h0.6v-4.2c0-0.6,0.6-0.8,1.3-0.8h0.6c0.6,0,0.6,0.3,0.6,0.8v4.2h1.9
		c0.6,0,0.6,0.3,0.6,1.1v0.3c0,0.8,0,1.1-0.6,1.1h-1.9V460.1z M500,460.1c0,0.8,0,0.8-0.6,0.8h-0.6c-0.6,0-1.3,0-1.3-0.8v-12.4
		c0-0.8,0.6-1.1,1.3-1.1h0.6c0.6,0,0.6,0.3,0.6,1.1V460.1z M500.6,441.3c0,1.1-0.6,1.7-1.9,1.7c-0.6,0-1.9-0.6-1.9-1.7
		c0-0.8,1.3-1.7,1.9-1.7C500,439.6,500.6,440.4,500.6,441.3 M508.2,460.1c0,0.8-0.6,0.8-1.3,0.8h-0.6c-0.6,0-0.6,0-0.6-0.8v-11H505
		c-0.6,0-0.6-0.3-0.6-1.1v-0.3c0-0.8,0-1.1,0.6-1.1h0.6v-4.2c0-0.6,0-0.8,0.6-0.8h0.6c0.6,0,1.3,0.3,1.3,0.8v4.2h1.3
		c0.6,0,1.3,0.3,1.3,1.1v0.3c0,0.8-0.6,1.1-1.3,1.1h-1.3V460.1z M516.5,455c0,2.8,0.6,4.2,3.2,4.2c1.9,0,3.2-1.4,3.2-4.2v-7.3
		c0-0.8,0-0.8,0.6-0.8h0.6c0.6,0,1.3,0,1.3,0.8v7.6c0,2-0.6,3.4-1.3,4.2c-1.3,1.4-3.2,2-4.5,2c-1.9,0-3.8-0.6-4.5-2
		c-1.3-0.8-1.3-2.2-1.3-4.2v-7.6c0-0.8,0-0.8,0.6-0.8h0.6c0.6,0,1.3,0,1.3,0.8V455z M533.1,460.1c0,0.8,0,0.8-0.6,0.8h-0.6
		c-1.3,0-1.3,0-1.3-0.8v-11h-0.6c-0.6,0-0.6-0.3-0.6-1.1v-0.3c0-0.8,0-1.1,0.6-1.1h0.6v-4.2c0-0.6,0-0.8,1.3-0.8h0.6
		c0.6,0,0.6,0.3,0.6,0.8v4.2h1.9c0.6,0,0.6,0.3,0.6,1.1v0.3c0,0.8,0,1.1-0.6,1.1h-1.9V460.1z"/>
</g>
</svg>
